<?xml version="1.0" encoding="UTF-8"?>
<svg id="Layer_1" data-name="Layer 1" xmlns="http://www.w3.org/2000/svg" viewBox="0 0 1732.09 1359.01">
  <defs>
    <style>
      .cls-1 {
        fill: #fff;
      }
    </style>
  </defs>
  <g>
    <path class="cls-1" d="M445.92,1074.85c-24.46,0-48.17-8.78-66.77-24.71L36.38,756.43C11.34,734.98-1.93,702.54,.87,669.63v-.02s.02-.19,.02-.19c2.85-25.94,15.37-49.63,35.25-66.65l15.05-12.9L378.91,309.06c18.6-15.94,42.32-24.71,66.77-24.71,30.05,0,58.49,13.07,78.02,35.87,15.93,18.6,24.71,42.31,24.71,66.77,0,30.05-13.07,58.49-35.87,78.03l-250.31,214.47,250.55,214.69c22.8,19.54,35.88,47.98,35.88,78.03,0,24.46-8.78,48.17-24.71,66.76-19.54,22.8-47.98,35.88-78.03,35.88Z"/>
    <path d="M445.69,284.84c29.9,0,58.2,13.01,77.63,35.69,15.86,18.51,24.59,42.11,24.59,66.45,0,29.91-13.01,58.21-35.69,77.65l-249.87,214.09-.89,.76,.89,.76,250.11,214.31c22.69,19.44,35.7,47.74,35.7,77.65,0,24.34-8.73,47.94-24.59,66.44-19.44,22.69-47.75,35.7-77.65,35.7-24.34,0-47.94-8.73-66.45-24.59L52.73,769.79l-16.03-13.74c-12.53-10.74-22.37-24.47-28.43-39.7-5.86-14.72-8.25-30.86-6.9-46.69,.01-.07,.02-.13,.02-.18,2.85-25.85,15.31-49.4,35.07-66.33l15.05-12.9L379.23,309.44c18.51-15.86,42.11-24.59,66.45-24.59h0m0-1c-23.76,0-47.64,8.16-67.1,24.83L50.86,589.49l-15.05,12.9C15.1,620.13,3.15,644.3,.39,669.42c0,.03,0,.06-.01,.08-2.75,32,9.42,64.82,35.67,87.31l16.03,13.74,326.74,279.97c19.46,16.67,43.33,24.83,67.1,24.83,29.08,0,58-12.23,78.41-36.05,16.67-19.45,24.83-43.33,24.83-67.09,0-29.09-12.23-58-36.05-78.41l-250.11-214.31,249.87-214.09c23.81-20.41,36.04-49.32,36.04-78.41,0-23.76-8.16-47.64-24.83-67.1-20.41-23.82-49.31-36.04-78.4-36.04h0Z"/>
  </g>
  <g>
    <path class="cls-1" d="M1285.93,1074.85c-30.05,0-58.49-13.08-78.03-35.88-15.93-18.59-24.71-42.3-24.71-66.76,0-30.05,13.08-58.49,35.88-78.03l250.55-214.69-250.31-214.48c-22.79-19.54-35.87-47.98-35.87-78.02,0-24.46,8.78-48.17,24.71-66.77,19.53-22.8,47.97-35.88,78.02-35.88,24.46,0,48.17,8.78,66.78,24.72l342.77,293.7c19.88,17.04,32.4,40.75,35.26,66.76,3.08,28.13-5.7,56.57-24.09,78.04-7.82,9.12-17.03,16.7-27.36,22.54l-326.82,280.04c-18.6,15.94-42.31,24.71-66.77,24.71Z"/>
    <path d="M1286.17,283.84v1c24.34,0,47.94,8.74,66.45,24.6l327.76,280.84,15.01,12.86c19.77,16.95,32.23,40.52,35.08,66.39v.07c1.51,13.75,.27,27.41-3.69,40.61-4.1,13.66-10.92,26.12-20.28,37.03-7.78,9.07-16.94,16.62-27.22,22.43l-.08,.05-.07,.06-326.74,279.98c-18.51,15.86-42.11,24.59-66.45,24.59-29.91,0-58.21-13.01-77.65-35.7-15.86-18.5-24.59-42.1-24.59-66.44,0-29.91,13.01-58.21,35.7-77.65l250.11-214.31,.89-.76-.89-.76-249.87-214.1c-22.68-19.44-35.69-47.74-35.69-77.64,0-24.34,8.73-47.94,24.59-66.45,19.44-22.69,47.74-35.7,77.64-35.7v-1m0,0c-29.08,0-57.99,12.23-78.4,36.05-16.67,19.46-24.83,43.34-24.83,67.1,0,29.08,12.23,57.99,36.04,78.4l249.87,214.1-250.11,214.31c-23.82,20.41-36.05,49.32-36.05,78.41,0,23.76,8.16,47.64,24.83,67.09,20.41,23.82,49.33,36.05,78.41,36.05,23.76,0,47.64-8.16,67.1-24.83l326.74-279.98c10.14-5.73,19.47-13.3,27.49-22.65,19.32-22.55,27.21-51.04,24.21-78.4v-.02c-2.76-25.14-14.71-49.33-35.43-67.09l-15.01-12.86-327.76-280.84c-19.46-16.68-43.34-24.84-67.1-24.84h0Z"/>
  </g>
  <g>
    <path class="cls-1" d="M654.13,1358.51c-14.07,0-27.98-2.45-41.33-7.29-62.91-22.79-95.55-92.52-72.76-155.43L944.11,80.55C961.45,32.67,1007.31,.5,1058.21,.5c14.07,0,27.98,2.45,41.33,7.29,62.91,22.79,95.55,92.52,72.76,155.43l-404.06,1115.24c-17.35,47.88-63.2,80.05-114.1,80.05Z"/>
    <path d="M1058.21,0V1c14.01,0,27.86,2.44,41.16,7.26,30.35,11,54.6,33.15,68.29,62.39,13.69,29.24,15.17,62.05,4.17,92.4l-404.07,1115.24c-8.63,23.81-24.17,43.97-44.96,58.29-20.34,14.02-44.09,21.42-68.67,21.42-14.01,0-27.86-2.44-41.16-7.26-30.35-11-54.6-33.15-68.29-62.39-13.69-29.24-15.17-62.05-4.17-92.4L944.58,80.72c8.63-23.81,24.17-43.97,44.96-58.29,20.34-14.02,44.09-21.42,68.67-21.42V0M1058.21,0c-49.84,0-96.61,30.81-114.57,80.38l-404.07,1115.24c-22.92,63.27,9.78,133.15,73.06,156.07h0c13.71,4.97,27.72,7.32,41.5,7.32,49.84,0,96.61-30.81,114.57-80.38L1172.77,163.39c22.92-63.27-9.78-133.15-73.06-156.07h0C1086,2.36,1071.99,0,1058.21,0h0Z"/>
  </g>
</svg>