<?xml version="1.0" encoding="UTF-8"?>
<svg id="Layer_1" data-name="Layer 1" xmlns="http://www.w3.org/2000/svg" viewBox="0 0 1875.27 1881.33">
  <path d="M0,940.2C311.05,628.34,625.14,313.42,937.73,0c313.62,314.85,628.37,630.85,937.53,941.24-310.39,311.32-625.2,627.07-937.29,940.1C625.79,1568.1,311.09,1252.34,0,940.2Zm1778.16,4.71C1500.54,665.74,1220.11,383.74,942.66,104.73,661.16,387.44,378.45,671.35,107.04,943.92c276.42,277.87,556.84,559.78,835.12,839.52,276.91-277.75,557.94-559.64,836-838.53Z"/>
  <circle cx="1140.69" cy="1193.74" r="24.5"/>
  <path d="M598.29,699.41c-7.64,25.64-18.81,50.84-22.13,77.03-5.38,42.47-2.74,90.23,41.54,107.76,27.96,11.08,69.77,7.66,97.43-5.69,42.79-20.66,52.69-65.25,43.59-111.8-10.65-54.5-24.88-108.56-31.16-163.54-2.94-25.73,9.16-53.19,14.45-79.86,5.07,.03,10.14,.07,15.21,.1,6.47,16.93,13.9,33.57,19.26,50.84,25.02,80.66,100.71,126.5,182.73,110.07,58.34-11.69,95.87-67.23,83.34-125.53-4.63-21.56-12.95-42.33-19.7-63.83,115.28-4.15,209.82,154.82,161.75,270.19-12.85,30.83-29.38,60.14-41.84,91.11-23.16,57.53-2.42,107.58,49.86,124.52,56.2,18.21,120.02-12.65,134.04-67.73,6.77-26.6,6.59-54.97,10.52-91.51,49.11,43.08,47.67,93.2,43.16,140.52-15.5,162.46-94.2,288.98-227.18,382.21-111.78,78.37-348.53,63.66-473.3-28.83-175.57-130.16-238.75-372.58-146.69-571.01,10.39-22.4,33.14-39.08,50.16-58.41,4.99,4.46,9.98,8.92,14.98,13.38Z"/>
</svg>