<?xml version="1.0" encoding="UTF-8"?>
<svg id="Layer_1" data-name="Layer 1" xmlns="http://www.w3.org/2000/svg" viewBox="0 0 1283.5 799">
  <defs>
    <style>
      .cls-1 {
        fill: #fff;
      }
    </style>
  </defs>
  <g>
    <rect class="cls-1" x=".5" y="104" width="244" height="694" rx="63.94" ry="63.94"/>
    <path d="M180.56,104.5c34.98,0,63.44,28.46,63.44,63.44V734.06c0,34.98-28.46,63.44-63.44,63.44H64.44c-34.98,0-63.44-28.46-63.44-63.44V167.94c0-34.98,28.46-63.44,63.44-63.44h116.11m0-1H64.44C28.85,103.5,0,132.35,0,167.94V734.06c0,35.59,28.85,64.44,64.44,64.44h116.11c35.59,0,64.44-28.85,64.44-64.44V167.94c0-35.59-28.85-64.44-64.44-64.44h0Z"/>
  </g>
  <g>
    <path class="cls-1" d="M338.44,798c-35.26,0-63.94-28.68-63.94-63.94V167.94c0-35.26,28.68-63.94,63.94-63.94h247.06V42.94c0-23.13,18.81-41.94,41.94-41.94h286.12c23.12,0,41.94,18.81,41.94,41.94v61.06h263.06c35.26,0,63.94,28.68,63.94,63.94V734.06c0,35.26-28.68,63.94-63.94,63.94H338.44ZM758,197c-139.78,0-253.5,113.72-253.5,253.5s113.72,253.5,253.5,253.5,253.5-113.72,253.5-253.5-113.72-253.5-253.5-253.5Z"/>
    <path d="M913.56,1.5c22.85,0,41.44,18.59,41.44,41.44v61.56h263.56c34.98,0,63.44,28.46,63.44,63.44V734.06c0,34.98-28.46,63.44-63.44,63.44H338.44c-34.98,0-63.44-28.46-63.44-63.44V167.94c0-34.98,28.46-63.44,63.44-63.44h247.56V42.94c0-22.85,18.59-41.44,41.44-41.44h286.12m-155.56,703c140.06,0,254-113.94,254-254s-113.94-254-254-254-254,113.94-254,254,113.94,254,254,254M913.56,.5h-286.12c-23.44,0-42.44,19-42.44,42.44v60.56h-246.56c-35.59,0-64.44,28.85-64.44,64.44V734.06c0,35.59,28.85,64.44,64.44,64.44h880.12c35.59,0,64.44-28.85,64.44-64.44V167.94c0-35.59-28.85-64.44-64.44-64.44h-262.56V42.94c0-23.44-19-42.44-42.44-42.44h0Zm-155.56,703c-139.73,0-253-113.27-253-253s113.27-253,253-253,253,113.27,253,253-113.27,253-253,253h0Z"/>
  </g>
</svg>