<?xml version="1.0" encoding="UTF-8"?>
<svg id="Layer_1" data-name="Layer 1" xmlns="http://www.w3.org/2000/svg" viewBox="0 0 1283 798">
  <defs>
    <style>
      .cls-1 {
        fill: #fff;
      }
    </style>
  </defs>
  <g>
    <rect class="cls-1" x=".5" y="103.5" width="244" height="694" rx="63.94" ry="63.94"/>
    <path d="M180.56,104c34.98,0,63.44,28.46,63.44,63.44V733.56c0,34.98-28.46,63.44-63.44,63.44H64.44c-34.98,0-63.44-28.46-63.44-63.44V167.44c0-34.98,28.46-63.44,63.44-63.44h116.11m0-1H64.44C28.85,103,0,131.85,0,167.44V733.56c0,35.59,28.85,64.44,64.44,64.44h116.11c35.59,0,64.44-28.85,64.44-64.44V167.44c0-35.59-28.85-64.44-64.44-64.44h0Z"/>
  </g>
  <g>
    <path class="cls-1" d="M338.44,797.5c-35.26,0-63.94-28.68-63.94-63.94V167.44c0-35.26,28.68-63.94,63.94-63.94h247.06V42.44c0-23.13,18.81-41.94,41.94-41.94h286.12c23.12,0,41.94,18.81,41.94,41.94v61.06h263.06c35.26,0,63.94,28.68,63.94,63.94V733.56c0,35.26-28.68,63.94-63.94,63.94H338.44Z"/>
    <path d="M913.56,1c22.85,0,41.44,18.59,41.44,41.44v61.56h263.56c34.98,0,63.44,28.46,63.44,63.44V733.56c0,34.98-28.46,63.44-63.44,63.44H338.44c-34.98,0-63.44-28.46-63.44-63.44V167.44c0-34.98,28.46-63.44,63.44-63.44h247.56V42.44c0-22.85,18.59-41.44,41.44-41.44h286.12m0-1h-286.12c-23.44,0-42.44,19-42.44,42.44v60.56h-246.56c-35.59,0-64.44,28.85-64.44,64.44V733.56c0,35.59,28.85,64.44,64.44,64.44h880.12c35.59,0,64.44-28.85,64.44-64.44V167.44c0-35.59-28.85-64.44-64.44-64.44h-262.56V42.44c0-23.44-19-42.44-42.44-42.44h0Z"/>
  </g>
  <g>
    <path d="M758,702.5c-67.45,0-130.85-26.26-178.54-73.96-47.69-47.69-73.96-111.1-73.96-178.54s26.26-130.85,73.96-178.54,111.1-73.96,178.54-73.96,130.85,26.26,178.54,73.96c47.69,47.69,73.96,111.1,73.96,178.54s-26.26,130.85-73.96,178.54c-47.69,47.69-111.1,73.96-178.54,73.96Z"/>
    <path d="M758,198c34.02,0,67.02,6.66,98.09,19.8,30.01,12.69,56.96,30.86,80.1,54.01,23.14,23.14,41.31,50.09,54.01,80.1,13.14,31.07,19.8,64.07,19.8,98.09s-6.66,67.02-19.8,98.09c-12.69,30.01-30.86,56.96-54.01,80.1s-50.09,41.31-80.1,54.01c-31.07,13.14-64.07,19.8-98.09,19.8s-67.02-6.66-98.09-19.8c-30.01-12.69-56.96-30.86-80.1-54.01-23.14-23.14-41.31-50.09-54.01-80.1-13.14-31.07-19.8-64.07-19.8-98.09s6.66-67.02,19.8-98.09c12.69-30.01,30.86-56.96,54.01-80.1,23.14-23.14,50.09-41.31,80.1-54.01,31.07-13.14,64.07-19.8,98.09-19.8m0-1c-139.73,0-253,113.27-253,253s113.27,253,253,253,253-113.27,253-253-113.27-253-253-253h0Z"/>
  </g>
  <g>
    <circle class="cls-1" cx="757.5" cy="450.5" r="207"/>
    <path d="M757.5,244c27.88,0,54.92,5.46,80.38,16.23,24.59,10.4,46.67,25.29,65.64,44.26,18.96,18.96,33.85,41.05,44.26,65.64,10.77,25.46,16.23,52.5,16.23,80.38s-5.46,54.92-16.23,80.38c-10.4,24.59-25.29,46.67-44.26,65.64-18.96,18.96-41.05,33.85-65.64,44.26-25.46,10.77-52.5,16.23-80.38,16.23s-54.92-5.46-80.38-16.23c-24.59-10.4-46.67-25.29-65.64-44.26-18.96-18.96-33.85-41.05-44.26-65.64-10.77-25.46-16.23-52.5-16.23-80.38s5.46-54.92,16.23-80.38c10.4-24.59,25.29-46.67,44.26-65.64,18.96-18.96,41.05-33.85,65.64-44.26,25.46-10.77,52.5-16.23,80.38-16.23m0-1c-114.6,0-207.5,92.9-207.5,207.5s92.9,207.5,207.5,207.5,207.5-92.9,207.5-207.5-92.9-207.5-207.5-207.5h0Z"/>
  </g>
</svg>